<?xml version="1.0" encoding="utf-8"?>
<!-- Generator: Adobe Illustrator 18.1.0, SVG Export Plug-In . SVG Version: 6.00 Build 0)  -->
<svg version="1.1" id="Layer_1" xmlns="http://www.w3.org/2000/svg" xmlns:xlink="http://www.w3.org/1999/xlink" x="0px" y="0px"
	 viewBox="0 0 34 34" enable-background="new 0 0 34 34" xml:space="preserve">
<g>
	<path d="M27.7,0H6.3C2.8,0,0,2.8,0,6.3v21.4C0,31.2,2.8,34,6.3,34h21.4c3.5,0,6.3-2.8,6.3-6.3V6.3C34,2.8,31.2,0,27.7,0z
		 M17.8,31.1C9.8,31.1,4,24.9,4,17.1V17C4,9.2,9.7,2.9,18.1,2.9c5.2,0,8.1,1.7,10.7,4.2l-3.9,4.4c-2.1-1.9-4.2-3.1-7-3.1
		c-4.6,0-7.9,3.8-7.9,8.5V17c0,4.7,3.2,8.6,7.9,8.6c3.1,0,5-1.2,7.2-3.2l3.9,3.9C26.1,29.3,23.1,31.1,17.8,31.1z"/>
</g>
</svg>
